<svg width="638" height="1437" viewBox="0 0 638 1437" fill="none" xmlns="http://www.w3.org/2000/svg">
<path d="M581.669 1284.55C495.814 1231.64 565.286 1077.47 496.779 1003.97C407.145 907.805 219.059 937.269 152.718 824.333C85.3837 709.708 112.623 558.339 163.413 436.471C218.345 304.661 312.133 179.63 444.961 123.104C576.227 67.2435 731.619 87.7873 866.143 137.422C985.344 181.403 1050.45 299.515 1146.52 381.954C1239.39 461.654 1381.23 499.485 1421.44 613.972C1461.73 728.657 1416.78 860.971 1350.44 962.519C1291.76 1052.33 1177.8 1081.56 1082.56 1132.71C1009.78 1171.8 937.622 1202.78 858.319 1226.82C766.413 1254.68 663.573 1335.04 581.669 1284.55Z" fill="#F5F5F5"/>
</svg>
